######## ######## ######## ##          ######## ########  ######## ######## 
##       ##       ##       ##          ##       ##     ## ##       ##       
##       ##       ##       ##          ##       ##     ## ##       ##       
######   ######   ######   ##          ######   ########  ######   ######   
##       ##       ##       ##          ##       ##   ##   ##       ##       
##       ##       ##       ##          ##       ##    ##  ##       ##       
##       ######## ######## ########    ##       ##     ## ######## ######## 

 Genre:Action | Fantasy 
 Language:English
 IMDb:  http://www.imdb.com/title/tt1046245/
 Source:DVD Thanks!

 Format : AVI
 Format/Info : Audio Video Interleave
 File size : 1.02 GiB
 Duration : 1h 44mn
 Overall bit rate : 1 398 Kbps

 Video
 ID : 0
 Format : MPEG-4 Visual
 Format profile : Advanced Simple@L5
 Format settings, BVOP : Yes
 Format settings, QPel : No
 Format settings, GMC : No warppoints
 Format settings, Matrix : Default (H.263)
 Codec ID : XVID
 Codec ID/Hint : XviD
 Duration : 1h 44mn
 Bit rate : 941 Kbps
 Width : 640 pixels
 Height : 352 pixels
 Display aspect ratio : 16:9
 Frame rate : 23.976 fps
 Color space : YUV
 Chroma subsampling : 4:2:0
 Bit depth : 8 bits
 Scan type : Progressive
 Bits/(Pixel*Frame) : 0.174
 Stream size : 706 MiB (67%)
 Writing library : XviD 1.2.1 (UTC 2008-12-04)

 Audio
 ID : 1
 Format : AC-3
 Format/Info : Audio Coding 3
 Mode extension : CM (complete main)
 Codec ID : 2000
 Duration : 1h 44mn
 Bit rate mode : Constant
 Bit rate : 448 Kbps
 Channel(s) : 6 channels
 Channel positions : Front: L C R, Side: L R, LFE
 Sampling rate : 48.0 KHz
 Bit depth : 16 bits
 Stream size : 336 MiB (32%)
 Alignment : Aligned on interleaves
 Interleave, duration : 42 ms (1.00 video frame)
 Interleave, preload duration : 512 ms


 Plot:
 Given incredible power by an ancient Celtic Cross. Callan continues to 
 fight evil... Now, joined by a team of weapons experts, Callan battles 
 an unstoppable empire in Los Angeles.







 ==================================  http://thepiratebay.org/user/hiest
 ==================================







 Screen Shots:
  http://www.pix2links.com/images/99434542404889533290.png
  http://www.pix2links.com/images/66107493136120097667.png
  http://www.pix2links.com/images/74486711160972028842.png
  http://www.pix2links.com/images/79061624340250745965.png
  http://www.pix2links.com/images/59943786190700590631.png
  http://www.pix2links.com/images/50336617469442450428.png

######## ######## ######## ##          ######## ########  ######## ######## 
##       ##       ##       ##          ##       ##     ## ##       ##       
##       ##       ##       ##          ##       ##     ## ##       ##       
######   ######   ######   ##          ######   ########  ######   ######   
##       ##       ##       ##          ##       ##   ##   ##       ##       
##       ##       ##       ##          ##       ##    ##  ##       ##       
##       ######## ######## ########    ##       ##     ## ######## ######## 